<?xml version="1.0" standalone="no"?>
<!DOCTYPE svg PUBLIC "-//W3C//DTD SVG 20010904//EN"
 "http://www.w3.org/TR/2001/REC-SVG-20010904/DTD/svg10.dtd">
<svg version="1.0" xmlns="http://www.w3.org/2000/svg"
 width="2010.000000pt" height="2590.000000pt" viewBox="0 0 2010.000000 2590.000000"
 preserveAspectRatio="xMidYMid meet">
<metadata>
Created by potrace 1.16, written by Peter Selinger 2001-2019
</metadata>
<g transform="translate(0.000000,2590.000000) scale(0.100000,-0.100000)"
fill="#000000" stroke="none">
<path d="M9880 24573 c-679 -29 -1286 -149 -1905 -375 -1224 -448 -2299 -1301
-3020 -2398 -154 -233 -255 -410 -385 -675 -335 -681 -520 -1330 -607 -2130
-25 -230 -25 -960 0 -1190 36 -329 86 -619 153 -890 220 -885 616 -1680 1206
-2419 15 -19 19 -20 40 -7 39 24 158 125 158 134 0 4 -44 65 -98 135 -601 774
-993 1661 -1162 2626 -247 1415 33 2885 783 4111 347 568 820 1108 1332 1521
1246 1005 2816 1465 4405 1288 511 -56 1056 -193 1533 -384 67 -27 122 -48
123 -47 20 37 84 209 80 216 -19 30 -579 223 -841 289 -602 153 -1218 220
-1795 195z"/>
<path d="M14905 22134 c-38 -31 -78 -62 -88 -69 -17 -12 -12 -21 64 -121 293
-389 590 -924 766 -1379 247 -641 376 -1262 402 -1942 75 -1939 -803 -3786
-2360 -4965 -702 -532 -1541 -910 -2399 -1082 -419 -83 -706 -110 -1175 -111
-362 0 -476 7 -745 41 -771 98 -1529 350 -2190 729 -100 57 -155 84 -162 77
-22 -22 -116 -188 -110 -194 22 -21 288 -166 484 -263 1220 -603 2627 -781
3978 -504 1961 402 3622 1757 4418 3604 665 1541 669 3317 12 4865 -135 319
-325 673 -516 963 -127 193 -284 407 -298 407 -6 -1 -42 -26 -81 -56z"/>
<path d="M1861 6880 c-1023 -1678 -1861 -3055 -1861 -3060 0 -6 232 -10 630
-10 l630 0 0 34 c0 31 -2 34 -41 40 -95 15 -134 57 -127 139 4 49 82 177 1319
2174 723 1166 1317 2118 1321 2115 8 -9 798 -1313 798 -1318 0 -2 -262 -4
-582 -4 l-583 0 -262 -454 c-145 -250 -263 -459 -263 -465 0 -10 31 -31 47
-31 4 0 41 27 80 59 67 55 78 60 135 66 35 3 485 5 1001 3 l939 -3 515 -845
c805 -1322 762 -1249 769 -1301 6 -41 3 -49 -24 -81 -30 -33 -85 -58 -131 -58
-17 0 -21 -6 -21 -35 l0 -35 645 0 646 0 -13 24 c-42 77 -3694 6095 -3699
6096 -4 0 -844 -1373 -1868 -3050z"/>
<path d="M13855 9242 c-143 -268 -260 -494 -260 -502 0 -8 12 -19 26 -24 24
-8 38 0 148 85 67 52 136 99 154 106 24 8 340 12 1230 12 l1197 1 0 -2401 c0
-1812 -3 -2412 -12 -2447 -9 -38 -25 -59 -85 -116 -66 -63 -73 -73 -73 -108
l0 -38 600 0 600 0 0 38 c0 34 -7 45 -66 101 -36 35 -69 74 -75 88 -5 15 -9
959 -9 2454 l0 2429 1060 0 c1156 0 1092 3 1139 -56 16 -21 21 -41 21 -90 0
-63 0 -64 28 -64 25 0 43 29 305 504 152 277 277 506 277 510 0 3 -1338 6
-2972 6 l-2973 -1 -260 -487z"/>
<path d="M5030 2489 c-2230 -15 -4275 -28 -4544 -28 -269 -1 -486 -4 -483 -8
4 -3 2265 -21 5026 -39 l5018 -32 5021 32 c2762 18 5025 36 5029 39 3 4 -140
7 -318 7 -178 0 -2371 14 -4874 30 -2502 16 -4836 29 -5185 29 -349 -1 -2460
-14 -4690 -30z"/>
<path d="M519 1947 c-19 -12 -44 -41 -56 -62 -39 -71 -416 -1039 -420 -1080
-10 -85 79 -153 164 -127 47 14 71 53 128 210 l37 102 251 -2 250 -3 42 -105
c69 -174 86 -198 153 -207 72 -10 142 48 142 117 0 21 -7 57 -15 81 -40 115
-401 995 -420 1023 -37 55 -80 76 -155 76 -53 0 -74 -5 -101 -23z m158 -419
c29 -79 68 -187 87 -240 l36 -98 -179 0 -178 0 86 240 c47 132 88 240 91 240
3 0 29 -64 57 -142z"/>
<path d="M1463 1950 c-71 -43 -68 -14 -71 -615 -2 -354 0 -552 7 -576 29 -100
161 -119 218 -32 16 24 19 67 23 412 l5 385 247 -380 c244 -374 296 -443 351
-463 69 -26 149 -4 182 52 19 30 20 57 23 552 2 286 0 544 -3 574 -10 77 -44
111 -115 111 -62 0 -84 -11 -107 -53 -16 -28 -19 -74 -23 -417 l-5 -384 -272
411 c-199 301 -280 416 -302 428 -42 21 -119 19 -158 -5z"/>
<path d="M7270 1942 c-21 -22 -30 -42 -35 -83 -3 -30 -5 -290 -3 -579 3 -594
1 -578 77 -601 77 -23 140 9 161 82 6 19 10 134 10 257 0 262 6 297 64 357 70
73 181 84 237 24 42 -45 49 -96 49 -366 0 -141 5 -264 11 -286 25 -92 169
-103 214 -16 14 26 16 76 13 357 -3 317 -4 328 -26 373 -29 59 -82 112 -141
141 -38 18 -63 22 -141 22 -108 1 -160 -17 -237 -80 l-43 -35 0 168 c0 92 -5
186 -10 208 -13 59 -49 85 -116 85 -48 0 -60 -4 -84 -28z"/>
<path d="M10445 1948 c-14 -13 -30 -41 -35 -63 -13 -55 -13 -1080 0 -1126 28
-100 160 -119 217 -32 17 25 18 72 21 570 3 575 1 605 -43 649 -34 34 -122 34
-160 2z"/>
<path d="M14810 1955 c-158 -44 -293 -151 -360 -289 -60 -123 -74 -188 -73
-346 0 -104 5 -153 22 -214 58 -217 205 -369 401 -417 30 -7 109 -14 175 -14
96 0 134 5 191 23 176 54 304 196 329 364 13 88 -50 158 -132 145 -49 -8 -60
-20 -109 -123 -46 -98 -88 -144 -158 -174 -138 -60 -307 -12 -385 108 -87 136
-94 408 -16 569 32 65 110 136 172 157 26 9 76 16 112 16 116 -1 197 -55 272
-182 48 -82 69 -98 132 -98 40 0 53 5 78 29 25 25 29 37 29 84 0 99 -60 197
-167 274 -105 74 -174 96 -328 99 -94 3 -145 0 -185 -11z"/>
<path d="M2631 1924 c-38 -31 -48 -78 -28 -127 24 -56 43 -61 230 -65 l167 -4
0 -482 c0 -459 1 -482 20 -513 38 -63 122 -80 186 -38 53 34 54 45 54 559 l0
474 163 4 c107 3 171 8 188 17 35 18 54 54 53 104 -1 32 -8 47 -33 69 l-31 28
-469 0 -469 0 -31 -26z"/>
<path d="M4169 1935 c-34 -19 -53 -66 -46 -112 13 -77 56 -92 264 -93 l142 0
3 -495 3 -495 31 -31 c58 -58 163 -46 201 23 17 30 18 71 21 516 l3 482 137 0
c161 1 209 10 240 45 31 37 30 104 -2 142 l-24 28 -474 2 c-395 2 -477 0 -499
-12z"/>
<path d="M17882 1924 c-43 -30 -52 -65 -52 -194 0 -119 0 -120 -24 -120 -37 0
-86 -20 -96 -40 -6 -10 -10 -36 -10 -58 0 -50 25 -73 85 -79 l45 -6 0 -268 c0
-153 5 -289 11 -318 14 -67 45 -111 99 -141 40 -22 57 -25 150 -24 166 0 240
34 240 109 0 77 -38 102 -132 85 -123 -23 -128 -10 -128 315 l0 245 50 0 c119
0 178 74 116 147 -21 24 -32 28 -94 31 l-70 4 -4 135 -3 135 -33 29 c-26 23
-41 29 -80 29 -27 0 -57 -7 -70 -16z"/>
<path d="M5495 1616 c-152 -37 -258 -137 -307 -289 -29 -89 -29 -266 1 -359
53 -164 179 -265 366 -290 159 -22 313 16 405 99 61 55 83 94 83 147 0 50 -29
76 -84 76 -32 0 -48 -9 -101 -56 -35 -31 -85 -67 -113 -80 -85 -40 -192 -28
-253 29 -32 29 -68 102 -77 155 l-7 42 264 0 c144 0 279 5 299 10 19 6 46 22
60 36 21 23 24 34 24 107 -1 71 -5 91 -32 149 -56 119 -141 190 -268 223 -70
18 -189 18 -260 1z m180 -167 c55 -15 119 -83 133 -142 21 -83 36 -77 -193
-77 -113 0 -205 2 -205 4 0 2 9 33 20 68 21 70 61 116 120 142 42 18 72 19
125 5z"/>
<path d="M6555 1620 c-188 -39 -308 -165 -346 -364 -23 -121 -3 -275 48 -368
38 -70 130 -152 199 -177 225 -85 505 -18 599 143 64 110 31 216 -68 216 -33
0 -45 -6 -76 -39 -20 -21 -49 -58 -66 -82 -45 -64 -104 -91 -186 -87 -50 3
-75 10 -102 28 -42 29 -83 89 -99 145 -17 59 -14 182 5 240 59 176 259 222
368 85 75 -95 94 -110 139 -110 34 0 48 6 76 34 54 54 41 124 -37 211 -100
109 -284 160 -454 125z"/>
<path d="M8354 1621 c-12 -5 -31 -22 -43 -37 -21 -26 -21 -33 -21 -426 0 -440
0 -442 62 -474 45 -24 103 -13 142 25 l31 31 5 268 c5 263 5 268 31 317 65
128 231 153 294 45 18 -32 20 -57 25 -320 5 -246 8 -289 23 -317 50 -93 188
-77 217 26 12 45 13 524 1 608 -17 115 -73 192 -170 237 -35 15 -67 20 -136
21 -109 0 -164 -18 -240 -81 -55 -45 -65 -46 -65 -7 0 38 -49 84 -95 88 -22 3
-50 1 -61 -4z"/>
<path d="M9645 1619 c-240 -49 -383 -276 -346 -551 24 -179 127 -311 289 -370
77 -28 251 -31 334 -5 129 39 240 150 283 282 27 81 28 265 2 347 -39 127
-156 246 -280 283 -65 20 -216 27 -282 14z m215 -199 c65 -33 105 -101 121
-204 22 -141 -30 -286 -120 -333 -51 -27 -133 -31 -184 -10 -48 21 -104 88
-121 148 -20 66 -21 191 -2 253 44 147 178 211 306 146z"/>
<path d="M11164 1615 c-153 -33 -264 -133 -316 -283 -19 -55 -23 -88 -23 -182
0 -169 36 -261 140 -359 100 -95 248 -136 403 -114 104 15 180 51 248 115 149
141 187 400 88 603 -38 77 -135 166 -210 195 -114 42 -216 50 -330 25z m228
-198 c76 -42 118 -135 118 -261 0 -106 -21 -176 -68 -228 -46 -51 -85 -68
-160 -68 -47 0 -67 6 -104 29 -110 70 -146 287 -73 437 55 112 179 151 287 91z"/>
<path d="M12189 1620 c-102 -17 -206 -96 -255 -192 -72 -143 -70 -389 4 -535
109 -212 395 -268 566 -112 l54 49 -5 -82 c-7 -114 -19 -156 -57 -194 -37 -37
-89 -54 -166 -54 -93 0 -126 15 -200 91 -65 66 -70 69 -115 69 -91 0 -131 -79
-85 -170 52 -101 202 -160 410 -160 249 0 379 73 433 244 21 69 22 83 22 521
0 414 -1 453 -18 483 -22 39 -58 56 -111 49 -51 -7 -86 -42 -93 -96 l-6 -41
-42 39 c-55 51 -106 77 -180 90 -65 12 -88 12 -156 1z m239 -199 c49 -25 76
-56 104 -116 18 -41 23 -68 23 -150 0 -89 -3 -105 -27 -150 -45 -86 -106 -125
-194 -125 -59 0 -106 23 -148 72 -44 51 -61 114 -60 218 2 126 49 220 129 256
45 20 129 17 173 -5z"/>
<path d="M13003 1610 c-84 -51 -79 -75 97 -515 83 -206 150 -385 150 -396 0
-35 -59 -148 -88 -167 -21 -13 -44 -16 -109 -14 -77 3 -85 1 -108 -22 -44 -44
-28 -124 29 -148 20 -8 75 -13 156 -13 109 0 130 3 166 22 53 28 105 87 137
154 53 114 369 956 374 1000 5 41 2 50 -23 78 -50 56 -136 52 -172 -8 -10 -16
-65 -164 -122 -329 -58 -165 -106 -299 -108 -297 -2 1 -50 138 -107 303 -57
165 -111 311 -119 325 -32 48 -99 60 -153 27z"/>
<path d="M15985 1616 c-163 -39 -276 -156 -315 -324 -16 -69 -16 -215 0 -284
47 -199 194 -318 414 -334 152 -11 282 27 370 107 112 102 109 219 -6 219 -31
0 -47 -9 -100 -56 -35 -31 -85 -67 -113 -80 -89 -42 -204 -25 -262 37 -27 29
-58 100 -67 151 l-7 37 283 3 c315 3 335 7 357 69 24 71 5 190 -46 276 -30 51
-98 115 -152 142 -95 49 -245 64 -356 37z m178 -167 c76 -21 147 -115 147
-196 l0 -23 -204 0 -204 0 10 42 c20 91 65 149 134 173 48 17 68 18 117 4z"/>
<path d="M16795 1621 c-11 -5 -29 -19 -40 -31 -19 -21 -20 -38 -23 -421 -3
-446 -2 -452 63 -483 41 -20 66 -20 110 -2 57 24 59 35 65 321 l5 260 28 58
c22 44 39 63 75 85 86 50 184 32 220 -41 24 -49 32 -141 32 -377 0 -214 2
-238 19 -266 23 -38 77 -59 126 -50 41 8 82 53 90 100 4 18 5 167 3 332 -3
335 -6 347 -82 432 -57 62 -122 86 -236 86 -84 1 -102 -3 -152 -27 -31 -15
-74 -45 -96 -66 l-40 -39 -7 35 c-3 20 -13 46 -21 58 -26 39 -90 56 -139 36z"/>
<path d="M18695 1616 c-211 -51 -325 -215 -325 -465 0 -163 37 -267 126 -354
127 -126 357 -162 556 -87 99 37 197 145 198 218 0 37 -43 72 -89 72 -35 0
-49 -8 -107 -60 -93 -82 -123 -95 -216 -95 -69 0 -80 3 -120 30 -47 34 -93
113 -101 177 l-6 37 282 3 c245 3 286 5 314 20 41 23 57 72 50 152 -14 173
-129 305 -302 351 -70 18 -189 18 -260 1z m178 -167 c76 -21 147 -115 147
-196 l0 -23 -200 0 -200 0 0 28 c0 36 41 121 73 150 26 25 88 51 122 52 11 0
37 -5 58 -11z"/>
<path d="M19515 1621 c-37 -16 -56 -48 -66 -114 -15 -93 -7 -733 9 -769 28
-67 134 -88 188 -37 37 35 44 78 44 279 0 287 24 385 105 424 35 18 44 18 94
6 111 -26 144 -25 174 6 22 22 27 36 27 74 0 42 -4 52 -35 79 -37 33 -118 61
-173 61 -65 0 -111 -21 -157 -72 l-44 -49 -10 39 c-6 21 -20 47 -31 57 -22 20
-95 29 -125 16z"/>
<path d="M5150 99 c-2230 -15 -4302 -28 -4604 -28 -302 -1 -546 -4 -542 -8 12
-12 8140 -62 10046 -62 1906 0 10034 50 10046 62 4 4 -166 7 -377 7 -211 0
-2431 14 -4934 30 -2502 16 -4782 29 -5065 29 -283 -1 -2340 -14 -4570 -30z"/>
</g>
</svg>
